<mxfile host="app.diagrams.net" agent="Mozilla/5.0 (Windows NT 10.0; Win64; x64) AppleWebKit/537.36 (KHTML, like Gecko) Chrome/128.0.0.0 Safari/537.36 OPR/114.0.0.0" version="24.7.17">
  <diagram id="C5RBs43oDa-KdzZeNtuy" name="Page-1">
    <mxGraphModel dx="1617" dy="745" grid="1" gridSize="10" guides="1" tooltips="1" connect="1" arrows="1" fold="1" page="1" pageScale="1" pageWidth="827" pageHeight="1169" math="0" shadow="0">
      <root>
        <mxCell id="WIyWlLk6GJQsqaUBKTNV-0" />
        <mxCell id="WIyWlLk6GJQsqaUBKTNV-1" parent="WIyWlLk6GJQsqaUBKTNV-0" />
        <mxCell id="db68F4F6bv042cz980BD-30" style="edgeStyle=orthogonalEdgeStyle;rounded=0;orthogonalLoop=1;jettySize=auto;html=1;entryX=1;entryY=0.5;entryDx=0;entryDy=0;" edge="1" parent="WIyWlLk6GJQsqaUBKTNV-1" source="zkfFHV4jXpPFQw0GAbJ--0" target="db68F4F6bv042cz980BD-25">
          <mxGeometry relative="1" as="geometry" />
        </mxCell>
        <mxCell id="zkfFHV4jXpPFQw0GAbJ--0" value="BattleScene" style="swimlane;fontStyle=2;align=center;verticalAlign=top;childLayout=stackLayout;horizontal=1;startSize=26;horizontalStack=0;resizeParent=1;resizeLast=0;collapsible=1;marginBottom=0;rounded=0;shadow=0;strokeWidth=1;" parent="WIyWlLk6GJQsqaUBKTNV-1" vertex="1">
          <mxGeometry x="370" y="722" width="160" height="140" as="geometry">
            <mxRectangle x="230" y="140" width="160" height="26" as="alternateBounds" />
          </mxGeometry>
        </mxCell>
        <mxCell id="zkfFHV4jXpPFQw0GAbJ--1" value="- enemies : vector" style="text;align=left;verticalAlign=top;spacingLeft=4;spacingRight=4;overflow=hidden;rotatable=0;points=[[0,0.5],[1,0.5]];portConstraint=eastwest;" parent="zkfFHV4jXpPFQw0GAbJ--0" vertex="1">
          <mxGeometry y="26" width="160" height="26" as="geometry" />
        </mxCell>
        <mxCell id="zkfFHV4jXpPFQw0GAbJ--4" value="" style="line;html=1;strokeWidth=1;align=left;verticalAlign=middle;spacingTop=-1;spacingLeft=3;spacingRight=3;rotatable=0;labelPosition=right;points=[];portConstraint=eastwest;" parent="zkfFHV4jXpPFQw0GAbJ--0" vertex="1">
          <mxGeometry y="52" width="160" height="8" as="geometry" />
        </mxCell>
        <mxCell id="db68F4F6bv042cz980BD-2" value="+ render() : void" style="text;align=left;verticalAlign=top;spacingLeft=4;spacingRight=4;overflow=hidden;rotatable=0;points=[[0,0.5],[1,0.5]];portConstraint=eastwest;" vertex="1" parent="zkfFHV4jXpPFQw0GAbJ--0">
          <mxGeometry y="60" width="160" height="26" as="geometry" />
        </mxCell>
        <mxCell id="zkfFHV4jXpPFQw0GAbJ--5" value="+ load() : void" style="text;align=left;verticalAlign=top;spacingLeft=4;spacingRight=4;overflow=hidden;rotatable=0;points=[[0,0.5],[1,0.5]];portConstraint=eastwest;" parent="zkfFHV4jXpPFQw0GAbJ--0" vertex="1">
          <mxGeometry y="86" width="160" height="26" as="geometry" />
        </mxCell>
        <mxCell id="db68F4F6bv042cz980BD-1" value="+ update() : void" style="text;align=left;verticalAlign=top;spacingLeft=4;spacingRight=4;overflow=hidden;rotatable=0;points=[[0,0.5],[1,0.5]];portConstraint=eastwest;" vertex="1" parent="zkfFHV4jXpPFQw0GAbJ--0">
          <mxGeometry y="112" width="160" height="26" as="geometry" />
        </mxCell>
        <mxCell id="db68F4F6bv042cz980BD-3" value="SCENE" style="swimlane;fontStyle=2;align=center;verticalAlign=top;childLayout=stackLayout;horizontal=1;startSize=26;horizontalStack=0;resizeParent=1;resizeLast=0;collapsible=1;marginBottom=0;rounded=0;shadow=0;strokeWidth=1;" vertex="1" parent="WIyWlLk6GJQsqaUBKTNV-1">
          <mxGeometry x="176" y="350" width="184" height="268" as="geometry">
            <mxRectangle x="230" y="140" width="160" height="26" as="alternateBounds" />
          </mxGeometry>
        </mxCell>
        <mxCell id="db68F4F6bv042cz980BD-4" value="- name : string" style="text;align=left;verticalAlign=top;spacingLeft=4;spacingRight=4;overflow=hidden;rotatable=0;points=[[0,0.5],[1,0.5]];portConstraint=eastwest;" vertex="1" parent="db68F4F6bv042cz980BD-3">
          <mxGeometry y="26" width="184" height="26" as="geometry" />
        </mxCell>
        <mxCell id="db68F4F6bv042cz980BD-5" value="- isActive : bool" style="text;align=left;verticalAlign=top;spacingLeft=4;spacingRight=4;overflow=hidden;rotatable=0;points=[[0,0.5],[1,0.5]];portConstraint=eastwest;rounded=0;shadow=0;html=0;" vertex="1" parent="db68F4F6bv042cz980BD-3">
          <mxGeometry y="52" width="184" height="26" as="geometry" />
        </mxCell>
        <mxCell id="db68F4F6bv042cz980BD-6" value="" style="line;html=1;strokeWidth=1;align=left;verticalAlign=middle;spacingTop=-1;spacingLeft=3;spacingRight=3;rotatable=0;labelPosition=right;points=[];portConstraint=eastwest;" vertex="1" parent="db68F4F6bv042cz980BD-3">
          <mxGeometry y="78" width="184" height="8" as="geometry" />
        </mxCell>
        <mxCell id="db68F4F6bv042cz980BD-7" value="+ render() : void" style="text;align=left;verticalAlign=top;spacingLeft=4;spacingRight=4;overflow=hidden;rotatable=0;points=[[0,0.5],[1,0.5]];portConstraint=eastwest;" vertex="1" parent="db68F4F6bv042cz980BD-3">
          <mxGeometry y="86" width="184" height="26" as="geometry" />
        </mxCell>
        <mxCell id="db68F4F6bv042cz980BD-8" value="+ load() : void" style="text;align=left;verticalAlign=top;spacingLeft=4;spacingRight=4;overflow=hidden;rotatable=0;points=[[0,0.5],[1,0.5]];portConstraint=eastwest;" vertex="1" parent="db68F4F6bv042cz980BD-3">
          <mxGeometry y="112" width="184" height="26" as="geometry" />
        </mxCell>
        <mxCell id="db68F4F6bv042cz980BD-9" value="+ update() : void" style="text;align=left;verticalAlign=top;spacingLeft=4;spacingRight=4;overflow=hidden;rotatable=0;points=[[0,0.5],[1,0.5]];portConstraint=eastwest;" vertex="1" parent="db68F4F6bv042cz980BD-3">
          <mxGeometry y="138" width="184" height="26" as="geometry" />
        </mxCell>
        <mxCell id="db68F4F6bv042cz980BD-24" value="+ addEntity(Entity&amp;) : void" style="text;align=left;verticalAlign=top;spacingLeft=4;spacingRight=4;overflow=hidden;rotatable=0;points=[[0,0.5],[1,0.5]];portConstraint=eastwest;" vertex="1" parent="db68F4F6bv042cz980BD-3">
          <mxGeometry y="164" width="184" height="26" as="geometry" />
        </mxCell>
        <mxCell id="db68F4F6bv042cz980BD-27" value="+ removeEntity(Entity&amp;) : void" style="text;align=left;verticalAlign=top;spacingLeft=4;spacingRight=4;overflow=hidden;rotatable=0;points=[[0,0.5],[1,0.5]];portConstraint=eastwest;" vertex="1" parent="db68F4F6bv042cz980BD-3">
          <mxGeometry y="190" width="184" height="26" as="geometry" />
        </mxCell>
        <mxCell id="db68F4F6bv042cz980BD-25" value="+ updateEntities() : void" style="text;align=left;verticalAlign=top;spacingLeft=4;spacingRight=4;overflow=hidden;rotatable=0;points=[[0,0.5],[1,0.5]];portConstraint=eastwest;" vertex="1" parent="db68F4F6bv042cz980BD-3">
          <mxGeometry y="216" width="184" height="26" as="geometry" />
        </mxCell>
        <mxCell id="db68F4F6bv042cz980BD-26" value="+ renderEntities() : void" style="text;align=left;verticalAlign=top;spacingLeft=4;spacingRight=4;overflow=hidden;rotatable=0;points=[[0,0.5],[1,0.5]];portConstraint=eastwest;" vertex="1" parent="db68F4F6bv042cz980BD-3">
          <mxGeometry y="242" width="184" height="26" as="geometry" />
        </mxCell>
        <mxCell id="db68F4F6bv042cz980BD-29" style="edgeStyle=orthogonalEdgeStyle;rounded=0;orthogonalLoop=1;jettySize=auto;html=1;entryX=0;entryY=0.5;entryDx=0;entryDy=0;" edge="1" parent="WIyWlLk6GJQsqaUBKTNV-1" source="db68F4F6bv042cz980BD-10" target="db68F4F6bv042cz980BD-25">
          <mxGeometry relative="1" as="geometry" />
        </mxCell>
        <mxCell id="db68F4F6bv042cz980BD-10" value="TitleScene" style="swimlane;fontStyle=2;align=center;verticalAlign=top;childLayout=stackLayout;horizontal=1;startSize=26;horizontalStack=0;resizeParent=1;resizeLast=0;collapsible=1;marginBottom=0;rounded=0;shadow=0;strokeWidth=1;" vertex="1" parent="WIyWlLk6GJQsqaUBKTNV-1">
          <mxGeometry x="10" y="722" width="160" height="140" as="geometry">
            <mxRectangle x="230" y="140" width="160" height="26" as="alternateBounds" />
          </mxGeometry>
        </mxCell>
        <mxCell id="db68F4F6bv042cz980BD-11" value="- title: string" style="text;align=left;verticalAlign=top;spacingLeft=4;spacingRight=4;overflow=hidden;rotatable=0;points=[[0,0.5],[1,0.5]];portConstraint=eastwest;" vertex="1" parent="db68F4F6bv042cz980BD-10">
          <mxGeometry y="26" width="160" height="26" as="geometry" />
        </mxCell>
        <mxCell id="db68F4F6bv042cz980BD-13" value="" style="line;html=1;strokeWidth=1;align=left;verticalAlign=middle;spacingTop=-1;spacingLeft=3;spacingRight=3;rotatable=0;labelPosition=right;points=[];portConstraint=eastwest;" vertex="1" parent="db68F4F6bv042cz980BD-10">
          <mxGeometry y="52" width="160" height="8" as="geometry" />
        </mxCell>
        <mxCell id="db68F4F6bv042cz980BD-14" value="+ render() : void" style="text;align=left;verticalAlign=top;spacingLeft=4;spacingRight=4;overflow=hidden;rotatable=0;points=[[0,0.5],[1,0.5]];portConstraint=eastwest;" vertex="1" parent="db68F4F6bv042cz980BD-10">
          <mxGeometry y="60" width="160" height="26" as="geometry" />
        </mxCell>
        <mxCell id="db68F4F6bv042cz980BD-15" value="+ load() : void" style="text;align=left;verticalAlign=top;spacingLeft=4;spacingRight=4;overflow=hidden;rotatable=0;points=[[0,0.5],[1,0.5]];portConstraint=eastwest;" vertex="1" parent="db68F4F6bv042cz980BD-10">
          <mxGeometry y="86" width="160" height="26" as="geometry" />
        </mxCell>
        <mxCell id="db68F4F6bv042cz980BD-16" value="+ update() : void" style="text;align=left;verticalAlign=top;spacingLeft=4;spacingRight=4;overflow=hidden;rotatable=0;points=[[0,0.5],[1,0.5]];portConstraint=eastwest;" vertex="1" parent="db68F4F6bv042cz980BD-10">
          <mxGeometry y="112" width="160" height="26" as="geometry" />
        </mxCell>
        <mxCell id="db68F4F6bv042cz980BD-28" style="edgeStyle=orthogonalEdgeStyle;rounded=0;orthogonalLoop=1;jettySize=auto;html=1;entryX=0.499;entryY=1;entryDx=0;entryDy=0;entryPerimeter=0;" edge="1" parent="WIyWlLk6GJQsqaUBKTNV-1" source="db68F4F6bv042cz980BD-17" target="db68F4F6bv042cz980BD-26">
          <mxGeometry relative="1" as="geometry" />
        </mxCell>
        <mxCell id="db68F4F6bv042cz980BD-17" value="CityScene" style="swimlane;fontStyle=2;align=center;verticalAlign=top;childLayout=stackLayout;horizontal=1;startSize=26;horizontalStack=0;resizeParent=1;resizeLast=0;collapsible=1;marginBottom=0;rounded=0;shadow=0;strokeWidth=1;" vertex="1" parent="WIyWlLk6GJQsqaUBKTNV-1">
          <mxGeometry x="188" y="722" width="160" height="140" as="geometry">
            <mxRectangle x="230" y="140" width="160" height="26" as="alternateBounds" />
          </mxGeometry>
        </mxCell>
        <mxCell id="db68F4F6bv042cz980BD-18" value="- npcs : vector" style="text;align=left;verticalAlign=top;spacingLeft=4;spacingRight=4;overflow=hidden;rotatable=0;points=[[0,0.5],[1,0.5]];portConstraint=eastwest;" vertex="1" parent="db68F4F6bv042cz980BD-17">
          <mxGeometry y="26" width="160" height="26" as="geometry" />
        </mxCell>
        <mxCell id="db68F4F6bv042cz980BD-20" value="" style="line;html=1;strokeWidth=1;align=left;verticalAlign=middle;spacingTop=-1;spacingLeft=3;spacingRight=3;rotatable=0;labelPosition=right;points=[];portConstraint=eastwest;" vertex="1" parent="db68F4F6bv042cz980BD-17">
          <mxGeometry y="52" width="160" height="8" as="geometry" />
        </mxCell>
        <mxCell id="db68F4F6bv042cz980BD-21" value="+ render() : void" style="text;align=left;verticalAlign=top;spacingLeft=4;spacingRight=4;overflow=hidden;rotatable=0;points=[[0,0.5],[1,0.5]];portConstraint=eastwest;" vertex="1" parent="db68F4F6bv042cz980BD-17">
          <mxGeometry y="60" width="160" height="26" as="geometry" />
        </mxCell>
        <mxCell id="db68F4F6bv042cz980BD-22" value="+ load() : void" style="text;align=left;verticalAlign=top;spacingLeft=4;spacingRight=4;overflow=hidden;rotatable=0;points=[[0,0.5],[1,0.5]];portConstraint=eastwest;" vertex="1" parent="db68F4F6bv042cz980BD-17">
          <mxGeometry y="86" width="160" height="26" as="geometry" />
        </mxCell>
        <mxCell id="db68F4F6bv042cz980BD-23" value="+ update() : void" style="text;align=left;verticalAlign=top;spacingLeft=4;spacingRight=4;overflow=hidden;rotatable=0;points=[[0,0.5],[1,0.5]];portConstraint=eastwest;" vertex="1" parent="db68F4F6bv042cz980BD-17">
          <mxGeometry y="112" width="160" height="26" as="geometry" />
        </mxCell>
        <mxCell id="db68F4F6bv042cz980BD-31" value="Entity" style="swimlane;fontStyle=2;align=center;verticalAlign=top;childLayout=stackLayout;horizontal=1;startSize=26;horizontalStack=0;resizeParent=1;resizeLast=0;collapsible=1;marginBottom=0;rounded=0;shadow=0;strokeWidth=1;" vertex="1" parent="WIyWlLk6GJQsqaUBKTNV-1">
          <mxGeometry x="440" y="40" width="184" height="242" as="geometry">
            <mxRectangle x="230" y="140" width="160" height="26" as="alternateBounds" />
          </mxGeometry>
        </mxCell>
        <mxCell id="db68F4F6bv042cz980BD-32" value="- position : Vector2f" style="text;align=left;verticalAlign=top;spacingLeft=4;spacingRight=4;overflow=hidden;rotatable=0;points=[[0,0.5],[1,0.5]];portConstraint=eastwest;" vertex="1" parent="db68F4F6bv042cz980BD-31">
          <mxGeometry y="26" width="184" height="26" as="geometry" />
        </mxCell>
        <mxCell id="db68F4F6bv042cz980BD-33" value="- health : float" style="text;align=left;verticalAlign=top;spacingLeft=4;spacingRight=4;overflow=hidden;rotatable=0;points=[[0,0.5],[1,0.5]];portConstraint=eastwest;rounded=0;shadow=0;html=0;" vertex="1" parent="db68F4F6bv042cz980BD-31">
          <mxGeometry y="52" width="184" height="26" as="geometry" />
        </mxCell>
        <mxCell id="db68F4F6bv042cz980BD-60" value="- damage : int" style="text;align=left;verticalAlign=top;spacingLeft=4;spacingRight=4;overflow=hidden;rotatable=0;points=[[0,0.5],[1,0.5]];portConstraint=eastwest;rounded=0;shadow=0;html=0;" vertex="1" parent="db68F4F6bv042cz980BD-31">
          <mxGeometry y="78" width="184" height="26" as="geometry" />
        </mxCell>
        <mxCell id="db68F4F6bv042cz980BD-42" value="- isAlive : bool" style="text;align=left;verticalAlign=top;spacingLeft=4;spacingRight=4;overflow=hidden;rotatable=0;points=[[0,0.5],[1,0.5]];portConstraint=eastwest;rounded=0;shadow=0;html=0;" vertex="1" parent="db68F4F6bv042cz980BD-31">
          <mxGeometry y="104" width="184" height="26" as="geometry" />
        </mxCell>
        <mxCell id="db68F4F6bv042cz980BD-43" value="- damagable : bool" style="text;align=left;verticalAlign=top;spacingLeft=4;spacingRight=4;overflow=hidden;rotatable=0;points=[[0,0.5],[1,0.5]];portConstraint=eastwest;rounded=0;shadow=0;html=0;" vertex="1" parent="db68F4F6bv042cz980BD-31">
          <mxGeometry y="130" width="184" height="26" as="geometry" />
        </mxCell>
        <mxCell id="db68F4F6bv042cz980BD-34" value="" style="line;html=1;strokeWidth=1;align=left;verticalAlign=middle;spacingTop=-1;spacingLeft=3;spacingRight=3;rotatable=0;labelPosition=right;points=[];portConstraint=eastwest;" vertex="1" parent="db68F4F6bv042cz980BD-31">
          <mxGeometry y="156" width="184" height="8" as="geometry" />
        </mxCell>
        <mxCell id="db68F4F6bv042cz980BD-35" value="+ move(Vector2f) : void" style="text;align=left;verticalAlign=top;spacingLeft=4;spacingRight=4;overflow=hidden;rotatable=0;points=[[0,0.5],[1,0.5]];portConstraint=eastwest;" vertex="1" parent="db68F4F6bv042cz980BD-31">
          <mxGeometry y="164" width="184" height="26" as="geometry" />
        </mxCell>
        <mxCell id="db68F4F6bv042cz980BD-36" value="+ attack() : float" style="text;align=left;verticalAlign=top;spacingLeft=4;spacingRight=4;overflow=hidden;rotatable=0;points=[[0,0.5],[1,0.5]];portConstraint=eastwest;" vertex="1" parent="db68F4F6bv042cz980BD-31">
          <mxGeometry y="190" width="184" height="26" as="geometry" />
        </mxCell>
        <mxCell id="db68F4F6bv042cz980BD-37" value="+ takeDamage(int) : void" style="text;align=left;verticalAlign=top;spacingLeft=4;spacingRight=4;overflow=hidden;rotatable=0;points=[[0,0.5],[1,0.5]];portConstraint=eastwest;" vertex="1" parent="db68F4F6bv042cz980BD-31">
          <mxGeometry y="216" width="184" height="26" as="geometry" />
        </mxCell>
        <mxCell id="db68F4F6bv042cz980BD-44" value="Player" style="swimlane;fontStyle=2;align=center;verticalAlign=top;childLayout=stackLayout;horizontal=1;startSize=26;horizontalStack=0;resizeParent=1;resizeLast=0;collapsible=1;marginBottom=0;rounded=0;shadow=0;strokeWidth=1;" vertex="1" parent="WIyWlLk6GJQsqaUBKTNV-1">
          <mxGeometry x="430" y="330" width="184" height="170" as="geometry">
            <mxRectangle x="230" y="140" width="160" height="26" as="alternateBounds" />
          </mxGeometry>
        </mxCell>
        <mxCell id="db68F4F6bv042cz980BD-45" value="- inventory : Inventory" style="text;align=left;verticalAlign=top;spacingLeft=4;spacingRight=4;overflow=hidden;rotatable=0;points=[[0,0.5],[1,0.5]];portConstraint=eastwest;" vertex="1" parent="db68F4F6bv042cz980BD-44">
          <mxGeometry y="26" width="184" height="26" as="geometry" />
        </mxCell>
        <mxCell id="db68F4F6bv042cz980BD-49" value="" style="line;html=1;strokeWidth=1;align=left;verticalAlign=middle;spacingTop=-1;spacingLeft=3;spacingRight=3;rotatable=0;labelPosition=right;points=[];portConstraint=eastwest;" vertex="1" parent="db68F4F6bv042cz980BD-44">
          <mxGeometry y="52" width="184" height="8" as="geometry" />
        </mxCell>
        <mxCell id="db68F4F6bv042cz980BD-50" value="+ move() : void" style="text;align=left;verticalAlign=top;spacingLeft=4;spacingRight=4;overflow=hidden;rotatable=0;points=[[0,0.5],[1,0.5]];portConstraint=eastwest;" vertex="1" parent="db68F4F6bv042cz980BD-44">
          <mxGeometry y="60" width="184" height="26" as="geometry" />
        </mxCell>
        <mxCell id="db68F4F6bv042cz980BD-51" value="+ attack() : int" style="text;align=left;verticalAlign=top;spacingLeft=4;spacingRight=4;overflow=hidden;rotatable=0;points=[[0,0.5],[1,0.5]];portConstraint=eastwest;" vertex="1" parent="db68F4F6bv042cz980BD-44">
          <mxGeometry y="86" width="184" height="26" as="geometry" />
        </mxCell>
        <mxCell id="db68F4F6bv042cz980BD-52" value="+ takeDamage() : void" style="text;align=left;verticalAlign=top;spacingLeft=4;spacingRight=4;overflow=hidden;rotatable=0;points=[[0,0.5],[1,0.5]];portConstraint=eastwest;" vertex="1" parent="db68F4F6bv042cz980BD-44">
          <mxGeometry y="112" width="184" height="26" as="geometry" />
        </mxCell>
        <mxCell id="db68F4F6bv042cz980BD-48" value="+ interactWithNPC(NPC&amp; npc)" style="text;align=left;verticalAlign=top;spacingLeft=4;spacingRight=4;overflow=hidden;rotatable=0;points=[[0,0.5],[1,0.5]];portConstraint=eastwest;rounded=0;shadow=0;html=0;" vertex="1" parent="db68F4F6bv042cz980BD-44">
          <mxGeometry y="138" width="184" height="26" as="geometry" />
        </mxCell>
        <mxCell id="db68F4F6bv042cz980BD-94" style="edgeStyle=orthogonalEdgeStyle;rounded=0;orthogonalLoop=1;jettySize=auto;html=1;entryX=1;entryY=0.5;entryDx=0;entryDy=0;" edge="1" parent="WIyWlLk6GJQsqaUBKTNV-1" source="db68F4F6bv042cz980BD-53" target="db68F4F6bv042cz980BD-27">
          <mxGeometry relative="1" as="geometry" />
        </mxCell>
        <mxCell id="db68F4F6bv042cz980BD-99" style="edgeStyle=orthogonalEdgeStyle;rounded=0;orthogonalLoop=1;jettySize=auto;html=1;exitX=0.75;exitY=1;exitDx=0;exitDy=0;entryX=0.75;entryY=0;entryDx=0;entryDy=0;" edge="1" parent="WIyWlLk6GJQsqaUBKTNV-1" source="db68F4F6bv042cz980BD-53" target="db68F4F6bv042cz980BD-81">
          <mxGeometry relative="1" as="geometry">
            <Array as="points">
              <mxPoint x="948" y="500" />
              <mxPoint x="718" y="500" />
            </Array>
          </mxGeometry>
        </mxCell>
        <mxCell id="db68F4F6bv042cz980BD-53" value="Enemy" style="swimlane;fontStyle=2;align=center;verticalAlign=top;childLayout=stackLayout;horizontal=1;startSize=26;horizontalStack=0;resizeParent=1;resizeLast=0;collapsible=1;marginBottom=0;rounded=0;shadow=0;strokeWidth=1;" vertex="1" parent="WIyWlLk6GJQsqaUBKTNV-1">
          <mxGeometry x="810" y="110" width="184" height="140" as="geometry">
            <mxRectangle x="230" y="140" width="160" height="26" as="alternateBounds" />
          </mxGeometry>
        </mxCell>
        <mxCell id="db68F4F6bv042cz980BD-54" value="- damage: int" style="text;align=left;verticalAlign=top;spacingLeft=4;spacingRight=4;overflow=hidden;rotatable=0;points=[[0,0.5],[1,0.5]];portConstraint=eastwest;" vertex="1" parent="db68F4F6bv042cz980BD-53">
          <mxGeometry y="26" width="184" height="26" as="geometry" />
        </mxCell>
        <mxCell id="db68F4F6bv042cz980BD-55" value="" style="line;html=1;strokeWidth=1;align=left;verticalAlign=middle;spacingTop=-1;spacingLeft=3;spacingRight=3;rotatable=0;labelPosition=right;points=[];portConstraint=eastwest;" vertex="1" parent="db68F4F6bv042cz980BD-53">
          <mxGeometry y="52" width="184" height="8" as="geometry" />
        </mxCell>
        <mxCell id="db68F4F6bv042cz980BD-56" value="+ move() : void" style="text;align=left;verticalAlign=top;spacingLeft=4;spacingRight=4;overflow=hidden;rotatable=0;points=[[0,0.5],[1,0.5]];portConstraint=eastwest;" vertex="1" parent="db68F4F6bv042cz980BD-53">
          <mxGeometry y="60" width="184" height="26" as="geometry" />
        </mxCell>
        <mxCell id="db68F4F6bv042cz980BD-57" value="+ attack() : float" style="text;align=left;verticalAlign=top;spacingLeft=4;spacingRight=4;overflow=hidden;rotatable=0;points=[[0,0.5],[1,0.5]];portConstraint=eastwest;" vertex="1" parent="db68F4F6bv042cz980BD-53">
          <mxGeometry y="86" width="184" height="26" as="geometry" />
        </mxCell>
        <mxCell id="db68F4F6bv042cz980BD-58" value="+ takeDamage() : void" style="text;align=left;verticalAlign=top;spacingLeft=4;spacingRight=4;overflow=hidden;rotatable=0;points=[[0,0.5],[1,0.5]];portConstraint=eastwest;" vertex="1" parent="db68F4F6bv042cz980BD-53">
          <mxGeometry y="112" width="184" height="26" as="geometry" />
        </mxCell>
        <mxCell id="db68F4F6bv042cz980BD-90" style="edgeStyle=orthogonalEdgeStyle;rounded=0;orthogonalLoop=1;jettySize=auto;html=1;exitX=0.5;exitY=0;exitDx=0;exitDy=0;entryX=1;entryY=0.5;entryDx=0;entryDy=0;" edge="1" parent="WIyWlLk6GJQsqaUBKTNV-1" source="db68F4F6bv042cz980BD-61" target="db68F4F6bv042cz980BD-36">
          <mxGeometry relative="1" as="geometry" />
        </mxCell>
        <mxCell id="db68F4F6bv042cz980BD-98" style="edgeStyle=orthogonalEdgeStyle;rounded=0;orthogonalLoop=1;jettySize=auto;html=1;entryX=0.5;entryY=0;entryDx=0;entryDy=0;" edge="1" parent="WIyWlLk6GJQsqaUBKTNV-1" source="db68F4F6bv042cz980BD-61" target="db68F4F6bv042cz980BD-81">
          <mxGeometry relative="1" as="geometry">
            <Array as="points">
              <mxPoint x="665" y="470" />
              <mxPoint x="665" y="470" />
            </Array>
          </mxGeometry>
        </mxCell>
        <mxCell id="db68F4F6bv042cz980BD-61" value="NPC" style="swimlane;fontStyle=2;align=center;verticalAlign=top;childLayout=stackLayout;horizontal=1;startSize=26;horizontalStack=0;resizeParent=1;resizeLast=0;collapsible=1;marginBottom=0;rounded=0;shadow=0;strokeWidth=1;" vertex="1" parent="WIyWlLk6GJQsqaUBKTNV-1">
          <mxGeometry x="640" y="330" width="184" height="112" as="geometry">
            <mxRectangle x="230" y="140" width="160" height="26" as="alternateBounds" />
          </mxGeometry>
        </mxCell>
        <mxCell id="db68F4F6bv042cz980BD-62" value="- dialog: string" style="text;align=left;verticalAlign=top;spacingLeft=4;spacingRight=4;overflow=hidden;rotatable=0;points=[[0,0.5],[1,0.5]];portConstraint=eastwest;" vertex="1" parent="db68F4F6bv042cz980BD-61">
          <mxGeometry y="26" width="184" height="26" as="geometry" />
        </mxCell>
        <mxCell id="db68F4F6bv042cz980BD-63" value="" style="line;html=1;strokeWidth=1;align=left;verticalAlign=middle;spacingTop=-1;spacingLeft=3;spacingRight=3;rotatable=0;labelPosition=right;points=[];portConstraint=eastwest;" vertex="1" parent="db68F4F6bv042cz980BD-61">
          <mxGeometry y="52" width="184" height="8" as="geometry" />
        </mxCell>
        <mxCell id="db68F4F6bv042cz980BD-64" value="+ move() : void" style="text;align=left;verticalAlign=top;spacingLeft=4;spacingRight=4;overflow=hidden;rotatable=0;points=[[0,0.5],[1,0.5]];portConstraint=eastwest;" vertex="1" parent="db68F4F6bv042cz980BD-61">
          <mxGeometry y="60" width="184" height="26" as="geometry" />
        </mxCell>
        <mxCell id="db68F4F6bv042cz980BD-65" value="+ talk() : void" style="text;align=left;verticalAlign=top;spacingLeft=4;spacingRight=4;overflow=hidden;rotatable=0;points=[[0,0.5],[1,0.5]];portConstraint=eastwest;" vertex="1" parent="db68F4F6bv042cz980BD-61">
          <mxGeometry y="86" width="184" height="26" as="geometry" />
        </mxCell>
        <mxCell id="db68F4F6bv042cz980BD-70" style="edgeStyle=orthogonalEdgeStyle;rounded=0;orthogonalLoop=1;jettySize=auto;html=1;exitX=0;exitY=0.5;exitDx=0;exitDy=0;entryX=0.5;entryY=0;entryDx=0;entryDy=0;" edge="1" parent="WIyWlLk6GJQsqaUBKTNV-1" source="db68F4F6bv042cz980BD-33" target="db68F4F6bv042cz980BD-3">
          <mxGeometry relative="1" as="geometry" />
        </mxCell>
        <mxCell id="db68F4F6bv042cz980BD-96" style="edgeStyle=orthogonalEdgeStyle;rounded=0;orthogonalLoop=1;jettySize=auto;html=1;entryX=1;entryY=0.5;entryDx=0;entryDy=0;" edge="1" parent="WIyWlLk6GJQsqaUBKTNV-1" source="db68F4F6bv042cz980BD-71" target="db68F4F6bv042cz980BD-86">
          <mxGeometry relative="1" as="geometry" />
        </mxCell>
        <mxCell id="db68F4F6bv042cz980BD-71" value="Inventory" style="swimlane;fontStyle=2;align=center;verticalAlign=top;childLayout=stackLayout;horizontal=1;startSize=26;horizontalStack=0;resizeParent=1;resizeLast=0;collapsible=1;marginBottom=0;rounded=0;shadow=0;strokeWidth=1;" vertex="1" parent="WIyWlLk6GJQsqaUBKTNV-1">
          <mxGeometry x="827" y="585" width="184" height="190" as="geometry">
            <mxRectangle x="230" y="140" width="160" height="26" as="alternateBounds" />
          </mxGeometry>
        </mxCell>
        <mxCell id="db68F4F6bv042cz980BD-72" value="- items: vector&lt;Item&gt;" style="text;align=left;verticalAlign=top;spacingLeft=4;spacingRight=4;overflow=hidden;rotatable=0;points=[[0,0.5],[1,0.5]];portConstraint=eastwest;" vertex="1" parent="db68F4F6bv042cz980BD-71">
          <mxGeometry y="26" width="184" height="26" as="geometry" />
        </mxCell>
        <mxCell id="db68F4F6bv042cz980BD-73" value="- capacity: int" style="text;align=left;verticalAlign=top;spacingLeft=4;spacingRight=4;overflow=hidden;rotatable=0;points=[[0,0.5],[1,0.5]];portConstraint=eastwest;rounded=0;shadow=0;html=0;" vertex="1" parent="db68F4F6bv042cz980BD-71">
          <mxGeometry y="52" width="184" height="26" as="geometry" />
        </mxCell>
        <mxCell id="db68F4F6bv042cz980BD-77" value="" style="line;html=1;strokeWidth=1;align=left;verticalAlign=middle;spacingTop=-1;spacingLeft=3;spacingRight=3;rotatable=0;labelPosition=right;points=[];portConstraint=eastwest;" vertex="1" parent="db68F4F6bv042cz980BD-71">
          <mxGeometry y="78" width="184" height="8" as="geometry" />
        </mxCell>
        <mxCell id="db68F4F6bv042cz980BD-75" value="+ addItem(Item&amp;) : void" style="text;align=left;verticalAlign=top;spacingLeft=4;spacingRight=4;overflow=hidden;rotatable=0;points=[[0,0.5],[1,0.5]];portConstraint=eastwest;rounded=0;shadow=0;html=0;" vertex="1" parent="db68F4F6bv042cz980BD-71">
          <mxGeometry y="86" width="184" height="26" as="geometry" />
        </mxCell>
        <mxCell id="db68F4F6bv042cz980BD-78" value="+ removeItem(Item&amp;) : void" style="text;align=left;verticalAlign=top;spacingLeft=4;spacingRight=4;overflow=hidden;rotatable=0;points=[[0,0.5],[1,0.5]];portConstraint=eastwest;" vertex="1" parent="db68F4F6bv042cz980BD-71">
          <mxGeometry y="112" width="184" height="26" as="geometry" />
        </mxCell>
        <mxCell id="db68F4F6bv042cz980BD-79" value="+ getItem(int) : int" style="text;align=left;verticalAlign=top;spacingLeft=4;spacingRight=4;overflow=hidden;rotatable=0;points=[[0,0.5],[1,0.5]];portConstraint=eastwest;" vertex="1" parent="db68F4F6bv042cz980BD-71">
          <mxGeometry y="138" width="184" height="26" as="geometry" />
        </mxCell>
        <mxCell id="db68F4F6bv042cz980BD-80" value="+ isFull() : bool" style="text;align=left;verticalAlign=top;spacingLeft=4;spacingRight=4;overflow=hidden;rotatable=0;points=[[0,0.5],[1,0.5]];portConstraint=eastwest;" vertex="1" parent="db68F4F6bv042cz980BD-71">
          <mxGeometry y="164" width="184" height="26" as="geometry" />
        </mxCell>
        <mxCell id="db68F4F6bv042cz980BD-95" style="edgeStyle=orthogonalEdgeStyle;rounded=0;orthogonalLoop=1;jettySize=auto;html=1;entryX=1;entryY=0.5;entryDx=0;entryDy=0;" edge="1" parent="WIyWlLk6GJQsqaUBKTNV-1" source="db68F4F6bv042cz980BD-81" target="db68F4F6bv042cz980BD-26">
          <mxGeometry relative="1" as="geometry">
            <Array as="points">
              <mxPoint x="460" y="650" />
              <mxPoint x="460" y="605" />
            </Array>
          </mxGeometry>
        </mxCell>
        <mxCell id="db68F4F6bv042cz980BD-81" value="UI" style="swimlane;fontStyle=2;align=center;verticalAlign=top;childLayout=stackLayout;horizontal=1;startSize=26;horizontalStack=0;resizeParent=1;resizeLast=0;collapsible=1;marginBottom=0;rounded=0;shadow=0;strokeWidth=1;" vertex="1" parent="WIyWlLk6GJQsqaUBKTNV-1">
          <mxGeometry x="560" y="585" width="210" height="165" as="geometry">
            <mxRectangle x="230" y="140" width="160" height="26" as="alternateBounds" />
          </mxGeometry>
        </mxCell>
        <mxCell id="db68F4F6bv042cz980BD-82" value="- menuOptions: string" style="text;align=left;verticalAlign=top;spacingLeft=4;spacingRight=4;overflow=hidden;rotatable=0;points=[[0,0.5],[1,0.5]];portConstraint=eastwest;" vertex="1" parent="db68F4F6bv042cz980BD-81">
          <mxGeometry y="26" width="210" height="26" as="geometry" />
        </mxCell>
        <mxCell id="db68F4F6bv042cz980BD-83" value="- playerStats: string" style="text;align=left;verticalAlign=top;spacingLeft=4;spacingRight=4;overflow=hidden;rotatable=0;points=[[0,0.5],[1,0.5]];portConstraint=eastwest;rounded=0;shadow=0;html=0;" vertex="1" parent="db68F4F6bv042cz980BD-81">
          <mxGeometry y="52" width="210" height="26" as="geometry" />
        </mxCell>
        <mxCell id="db68F4F6bv042cz980BD-84" value="" style="line;html=1;strokeWidth=1;align=left;verticalAlign=middle;spacingTop=-1;spacingLeft=3;spacingRight=3;rotatable=0;labelPosition=right;points=[];portConstraint=eastwest;" vertex="1" parent="db68F4F6bv042cz980BD-81">
          <mxGeometry y="78" width="210" height="8" as="geometry" />
        </mxCell>
        <mxCell id="db68F4F6bv042cz980BD-85" value="+ displayMenu() : void" style="text;align=left;verticalAlign=top;spacingLeft=4;spacingRight=4;overflow=hidden;rotatable=0;points=[[0,0.5],[1,0.5]];portConstraint=eastwest;rounded=0;shadow=0;html=0;" vertex="1" parent="db68F4F6bv042cz980BD-81">
          <mxGeometry y="86" width="210" height="26" as="geometry" />
        </mxCell>
        <mxCell id="db68F4F6bv042cz980BD-86" value="+ displayInventory(Inventory&amp;) : void" style="text;align=left;verticalAlign=top;spacingLeft=4;spacingRight=4;overflow=hidden;rotatable=0;points=[[0,0.5],[1,0.5]];portConstraint=eastwest;" vertex="1" parent="db68F4F6bv042cz980BD-81">
          <mxGeometry y="112" width="210" height="26" as="geometry" />
        </mxCell>
        <mxCell id="db68F4F6bv042cz980BD-87" value="+ render() : void" style="text;align=left;verticalAlign=top;spacingLeft=4;spacingRight=4;overflow=hidden;rotatable=0;points=[[0,0.5],[1,0.5]];portConstraint=eastwest;" vertex="1" parent="db68F4F6bv042cz980BD-81">
          <mxGeometry y="138" width="210" height="26" as="geometry" />
        </mxCell>
        <mxCell id="db68F4F6bv042cz980BD-89" style="edgeStyle=orthogonalEdgeStyle;rounded=0;orthogonalLoop=1;jettySize=auto;html=1;exitX=0;exitY=0.5;exitDx=0;exitDy=0;entryX=1;entryY=0.5;entryDx=0;entryDy=0;" edge="1" parent="WIyWlLk6GJQsqaUBKTNV-1" source="db68F4F6bv042cz980BD-56" target="db68F4F6bv042cz980BD-43">
          <mxGeometry relative="1" as="geometry" />
        </mxCell>
        <mxCell id="db68F4F6bv042cz980BD-91" style="edgeStyle=orthogonalEdgeStyle;rounded=0;orthogonalLoop=1;jettySize=auto;html=1;exitX=0.25;exitY=0;exitDx=0;exitDy=0;entryX=0.198;entryY=0.974;entryDx=0;entryDy=0;entryPerimeter=0;" edge="1" parent="WIyWlLk6GJQsqaUBKTNV-1" source="db68F4F6bv042cz980BD-44" target="db68F4F6bv042cz980BD-37">
          <mxGeometry relative="1" as="geometry" />
        </mxCell>
        <mxCell id="db68F4F6bv042cz980BD-93" style="edgeStyle=orthogonalEdgeStyle;rounded=0;orthogonalLoop=1;jettySize=auto;html=1;entryX=1;entryY=0.5;entryDx=0;entryDy=0;exitX=0.488;exitY=1.12;exitDx=0;exitDy=0;exitPerimeter=0;" edge="1" parent="WIyWlLk6GJQsqaUBKTNV-1" source="db68F4F6bv042cz980BD-65" target="db68F4F6bv042cz980BD-24">
          <mxGeometry relative="1" as="geometry">
            <mxPoint x="700" y="450" as="targetPoint" />
            <mxPoint x="360" y="520" as="sourcePoint" />
            <Array as="points">
              <mxPoint x="730" y="527" />
            </Array>
          </mxGeometry>
        </mxCell>
        <mxCell id="db68F4F6bv042cz980BD-97" style="edgeStyle=orthogonalEdgeStyle;rounded=0;orthogonalLoop=1;jettySize=auto;html=1;entryX=1;entryY=0.5;entryDx=0;entryDy=0;" edge="1" parent="WIyWlLk6GJQsqaUBKTNV-1" source="db68F4F6bv042cz980BD-72" target="db68F4F6bv042cz980BD-48">
          <mxGeometry relative="1" as="geometry">
            <Array as="points">
              <mxPoint x="800" y="624" />
              <mxPoint x="800" y="481" />
            </Array>
          </mxGeometry>
        </mxCell>
      </root>
    </mxGraphModel>
  </diagram>
</mxfile>
